<svg id="Logo" xmlns="http://www.w3.org/2000/svg" viewBox="0 0 600 75"><defs><style>.cls-2{fill:#f4146b;fill-rule:evenodd}</style></defs><title>AOH-Logo-Brand</title><path d="M131.418 56.249h-19.8l-2.946 9.318H98.188l18.088-51.386h10.552l18.088 51.386h-10.483zm-17.06-8.633h14.32l-6.852-21.651h-.548zm31.447-33.435h9.729v51.386h-9.729zm13.703 0h9.729v51.386h-9.729zm48.85 52.551c-11.716 0-22.268-8.975-22.268-21.034 0-11.991 10.552-20.966 22.268-20.966 11.785 0 22.268 8.975 22.268 20.966 0 12.059-10.483 21.034-22.268 21.034zm0-33.23a12.23 12.23 0 1 0 12.127 12.2A12.253 12.253 0 0 0 208.358 33.5zm22.815-7.602h3.7v-2.81c0-6.234 5.07-10.482 11.442-10.482a15.359 15.359 0 0 1 6.509 1.507l-2.4 7.331a4.8 4.8 0 0 0-2.535-.548 3.2 3.2 0 0 0-3.289 3.012v1.99h6.715v7.947H244.6v31.72h-9.729V33.844h-3.7zm35.01 0h3.631v-8.979h9.73V25.9h6.783v7.947h-6.783v21.24a3.2 3.2 0 0 0 3.288 3.015 4.8 4.8 0 0 0 2.536-.548l1.918 7.674a16.5 16.5 0 0 1-7.194 1.507c-6.1 0-10.278-4.248-10.278-10.483v-22.4h-3.631zm22.062 39.667V14.181h9.729v17.06h.206a13.145 13.145 0 0 1 11.373-6.509c9.25 0 15.348 6.783 15.348 16.855v23.98h-9.729V42.272a8.6 8.6 0 1 0-17.2 0v23.295zm81.67-15.484h-31.928a11.788 11.788 0 0 0 11.168 8.153c4.453 0 8.975-2.329 11.031-5.755l6.646 5.824a22.441 22.441 0 0 1-17.677 8.427c-11.922 0-21.651-9.044-21.651-21.034s9.729-20.966 21.651-20.966A21.085 21.085 0 0 1 370.463 45.7a19.2 19.2 0 0 1-.548 4.383zm-9.866-8.222a11.226 11.226 0 0 0-10.894-8.77 11.518 11.518 0 0 0-11.1 8.77zm57.894 23.706V44.122h-20.9v21.445h-9.729v-51.8h9.729v21.722h20.9V13.764h9.728v51.8zm34.599 1.165c-11.716 0-22.267-8.975-22.267-21.034 0-11.991 10.551-20.966 22.267-20.966 11.785 0 22.268 8.975 22.268 20.966 0 12.059-10.483 21.034-22.268 21.034zm0-33.23A12.23 12.23 0 1 0 464.67 45.7a12.253 12.253 0 0 0-12.128-12.2zm61.664-7.602v39.67h-9.73v-6.1h-.137a12.651 12.651 0 0 1-11.51 7.263c-9.113 0-15.417-6.92-15.417-16.855V25.9h9.73v23.3a8.668 8.668 0 1 0 17.334 0V25.9zm26.583 28.362c0-8.7-23.158.411-23.158-17.4 0-7.674 6.44-12.2 15.964-12.2a28.376 28.376 0 0 1 15.827 4.659l-4.248 7.332C542.5 34.6 537.843 33.3 533.6 33.3s-6.1 1.508-6.1 3.563c0 8.427 23.3-.891 23.3 17.4 0 8.154-7.879 12.47-17.2 12.47a30.815 30.815 0 0 1-16.786-4.659l4.727-7.743c2.878 2.125 7.263 3.5 12.059 3.769 4.38.273 7.189-1.371 7.189-3.838zm53.647-4.179h-31.929a11.789 11.789 0 0 0 11.169 8.153c4.453 0 8.975-2.329 11.03-5.755l6.646 5.824a22.438 22.438 0 0 1-17.676 8.427c-11.923 0-21.651-9.044-21.651-21.034s9.728-20.966 21.651-20.966A21.085 21.085 0 0 1 594.984 45.7a19.251 19.251 0 0 1-.548 4.383zm-9.867-8.222a11.226 11.226 0 0 0-10.893-8.77 11.518 11.518 0 0 0-11.1 8.77z" fill="#f4146b" id="Type"/><g id="Logo-2" data-name="Logo"><path class="cls-2" d="M53.296 59.958V28.243H28.271V9.9H9.932v55.024h18.339v-8.41h4.966v13.377H4.966V4.934h28.271v18.343h25.026v36.681h-4.967z"/><path class="cls-2" d="M28.271 34.929H46.61v4.966H28.271v-4.966z"/><path class="cls-2" d="M21.585 14.866v31.716H46.61v18.342h18.34V9.9H46.61v8.41h-4.966V4.934h28.272v64.957H41.644V51.548H16.619V14.866h4.966z"/></g><rect id="Circle" x="50.093" y="50.482" width="11.386" height="11.386" rx="5.693"/></svg>