<?xml version="1.0" encoding="UTF-8" standalone="no"?>
<!DOCTYPE svg PUBLIC "-//W3C//DTD SVG 1.1//EN" "http://www.w3.org/Graphics/SVG/1.1/DTD/svg11.dtd">
<svg version="1.1" xmlns="http://www.w3.org/2000/svg" xmlns:xlink="http://www.w3.org/1999/xlink" preserveAspectRatio="xMidYMid meet" viewBox="0 0 640 640" width="900" height="900"><defs><path d="M249.5 225.86L370.53 225.86L370.53 383.07L249.5 383.07L249.5 225.86Z" id="a6IZXYdCRU"></path><path d="M339.65 201.22L370.53 225.86L308.77 225.86L247.01 225.86L277.89 201.22L308.77 176.58L339.65 201.22Z" id="b1QLLvtuHm"></path><path d="M370.53 225.86L437.91 285.75L370.53 285.75L370.53 225.86Z" id="fgxRrjoyp"></path><path d="M397.98 285.75L437.91 285.75L437.91 492.87L397.98 492.87L397.98 285.75Z" id="b176NeoCQt"></path><path d="M254.5 406.78L370.53 406.78L370.53 492.87L254.5 492.87L254.5 406.78Z" id="baFyv8QGY"></path><path d="M180.88 462.93L254.5 462.93L254.5 492.87L180.88 492.87L180.88 462.93Z" id="d1uPczhJhm"></path><path d="M180.88 295.73L224.55 295.73L224.55 462.93L180.88 462.93L180.88 295.73Z" id="c1MSwXu8Ix"></path><path d="M224.55 250.82L180.88 295.73L224.55 295.73L224.55 250.82Z" id="cRqQ9SRid"></path><path d="M316.03 174.54L334.38 181.36L332.98 185.14L287.09 168.07L288.49 164.29L306.85 171.12L324.16 124.57L288 62.26L401.44 104.45L333.34 127.99L316.03 174.54ZM299.98 63.19L301.39 59.41L393.17 93.55L391.76 97.33L299.98 63.19Z" id="c4lzta9efa"></path><path d="M359.3 199.66L397.98 199.66L397.98 255.81L359.3 255.81L359.3 199.66Z" id="bzGXjJnlS"></path></defs><g><g><g><use xlink:href="#a6IZXYdCRU" opacity="1" fill="#cb2752" fill-opacity="1"></use></g><g><use xlink:href="#b1QLLvtuHm" opacity="1" fill="#cb2752" fill-opacity="1"></use></g><g><use xlink:href="#fgxRrjoyp" opacity="1" fill="#cb2752" fill-opacity="1"></use></g><g><use xlink:href="#b176NeoCQt" opacity="1" fill="#cb2752" fill-opacity="1"></use></g><g><use xlink:href="#baFyv8QGY" opacity="1" fill="#891936" fill-opacity="1"></use></g><g><use xlink:href="#d1uPczhJhm" opacity="1" fill="#891936" fill-opacity="1"></use></g><g><use xlink:href="#c1MSwXu8Ix" opacity="1" fill="#891936" fill-opacity="1"></use></g><g><use xlink:href="#cRqQ9SRid" opacity="1" fill="#891936" fill-opacity="1"></use></g><g><use xlink:href="#c4lzta9efa" opacity="1" fill="#7b142f" fill-opacity="1"></use></g><g><use xlink:href="#bzGXjJnlS" opacity="1" fill="#cb2752" fill-opacity="1"></use></g></g></g></svg>